# xmcd
#
# Track frame offsets:
#	182
#	10850
#	22290
#	34907
#	46150
#	60052
#	73042
#	86947
#	102505
#	120860
#	132900
#	145270
#
# Disc length: 2099 seconds
#
# Revision: 0
# Processed by: cddbd v1.4b42PL0 Copyright (c) Steve Scherf et al.
# Submitted via: audiograbber 1.80
#
DISCID=a008310c
DTITLE=Varios - Memórias Musica Sertaneja   16
DYEAR=1900
DGENRE=
TTITLE0=Raul Torres e Florêncio - Mineirinha
TTITLE1=Tião Carreiro e Pardinho - Osso duro de Roer
TTITLE2=Silveir e Silveirinha - Berrante Apaixonado
TTITLE3=Milionario e José Rico - Adeus
TTITLE4=Tonico e Tinoco - Saudades de Matão
TTITLE5=Tibagi e Miltinho - Sonho de Amor
TTITLE6=Praião e Prainha - Pombinha Mensageira
TTITLE7=Lourenço e Lourival - Cabelos Preto
TTITLE8=Craveiro e Cravinho - Boiadeiro da Esperança
TTITLE9=Leôncio e Leonel - Vai de Roda
TTITLE10=Irmãs Barbosa - Goianinho Adorado
TTITLE11=Gino e Geno - Xonado sem Quantia
EXTD=
EXTT0=
EXTT1=
EXTT2=
EXTT3=
EXTT4=
EXTT5=
EXTT6=
EXTT7=
EXTT8=
EXTT9=
EXTT10=
EXTT11=
PLAYORDER=
